<?xml version="1.0" encoding="UTF-8"?>
<svg xmlns="http://www.w3.org/2000/svg" xmlns:xlink="http://www.w3.org/1999/xlink" width="60px" height="60px" viewBox="0 0 60 60" version="1.1">
<g id="surface1">
<path style=" stroke:none;fill-rule:nonzero;fill:rgb(94.901961%,98.039216%,99.607843%);fill-opacity:1;" d="M 14.78125 18.742188 C 14.78125 26.773438 21.292969 33.28125 29.324219 33.28125 C 37.355469 33.28125 43.867188 26.773438 43.867188 18.742188 C 43.867188 10.710938 37.355469 4.199219 29.324219 4.199219 C 21.292969 4.199219 14.78125 10.710938 14.78125 18.742188 Z M 14.78125 18.742188 "/>
<path style=" stroke:none;fill-rule:nonzero;fill:rgb(87.45098%,94.509804%,98.431373%);fill-opacity:1;" d="M 16.910156 39.851562 L 16.910156 39.847656 L 16.714844 39.851562 C 10.535156 39.851562 5.511719 34.9375 5.402344 28.832031 L 5.398438 28.628906 C 5.398438 22.429688 10.464844 17.40625 16.714844 17.40625 C 22.417969 17.40625 27.132812 21.589844 27.917969 27.027344 L 28.167969 27.027344 L 28.167969 26.949219 C 28.167969 19.898438 33.875 14.167969 40.960938 14.050781 L 41.175781 14.050781 C 48.359375 14.050781 54.183594 19.828125 54.183594 26.949219 C 54.183594 34.074219 48.359375 39.851562 41.175781 39.851562 L 41.320312 39.847656 L 41.320312 39.851562 Z M 16.910156 39.851562 "/>
<path style=" stroke:none;fill-rule:nonzero;fill:rgb(87.45098%,94.509804%,98.431373%);fill-opacity:1;" d="M 15.953125 42.195312 C 17.363281 42.195312 18.066406 42.898438 18.066406 44.308594 C 18.066406 45.714844 17.363281 46.417969 15.953125 46.417969 C 14.546875 46.417969 13.84375 45.714844 13.84375 44.308594 C 13.84375 42.898438 14.546875 42.195312 15.953125 42.195312 Z M 15.953125 42.195312 "/>
<path style=" stroke:none;fill-rule:nonzero;fill:rgb(87.45098%,94.509804%,98.431373%);fill-opacity:1;" d="M 31.902344 42.195312 C 33.3125 42.195312 34.015625 42.898438 34.015625 44.308594 C 34.015625 45.714844 33.3125 46.417969 31.902344 46.417969 C 30.496094 46.417969 29.792969 45.714844 29.792969 44.308594 C 29.792969 42.898438 30.496094 42.195312 31.902344 42.195312 Z M 31.902344 42.195312 "/>
<path style=" stroke:none;fill-rule:nonzero;fill:rgb(87.45098%,94.509804%,98.431373%);fill-opacity:1;" d="M 28.152344 48.765625 C 28.539062 48.765625 28.855469 49.078125 28.855469 49.46875 L 28.855469 51.0625 L 30.238281 50.265625 C 30.574219 50.070312 31.003906 50.1875 31.199219 50.523438 C 31.390625 50.859375 31.277344 51.289062 30.941406 51.484375 L 29.558594 52.28125 L 30.941406 53.078125 C 31.164062 53.203125 31.304688 53.4375 31.304688 53.691406 C 31.308594 53.945312 31.171875 54.183594 30.949219 54.308594 C 30.726562 54.433594 30.453125 54.429688 30.238281 54.296875 L 28.855469 53.5 L 28.855469 55.097656 C 28.855469 55.484375 28.539062 55.800781 28.152344 55.800781 C 27.761719 55.800781 27.445312 55.484375 27.445312 55.097656 L 27.445312 53.5 L 26.066406 54.296875 C 25.730469 54.476562 25.316406 54.355469 25.125 54.027344 C 24.9375 53.699219 25.039062 53.28125 25.363281 53.082031 L 26.742188 52.28125 L 25.363281 51.484375 C 25.132812 51.363281 24.992188 51.128906 24.988281 50.871094 C 24.984375 50.613281 25.121094 50.375 25.347656 50.25 C 25.570312 50.121094 25.847656 50.128906 26.066406 50.265625 L 27.445312 51.0625 L 27.445312 49.46875 C 27.445312 49.078125 27.761719 48.765625 28.152344 48.765625 Z M 20.269531 48.765625 C 20.65625 48.765625 20.972656 49.078125 20.972656 49.46875 L 20.972656 51.0625 L 22.355469 50.265625 C 22.691406 50.070312 23.121094 50.1875 23.316406 50.523438 C 23.511719 50.859375 23.394531 51.289062 23.058594 51.484375 L 21.675781 52.28125 L 23.058594 53.078125 C 23.28125 53.203125 23.421875 53.4375 23.421875 53.691406 C 23.425781 53.945312 23.289062 54.183594 23.066406 54.308594 C 22.84375 54.433594 22.574219 54.429688 22.355469 54.296875 L 20.972656 53.5 L 20.972656 55.097656 C 20.980469 55.351562 20.847656 55.59375 20.625 55.722656 C 20.40625 55.851562 20.132812 55.851562 19.910156 55.722656 C 19.691406 55.59375 19.558594 55.351562 19.566406 55.097656 L 19.566406 53.5 L 18.183594 54.296875 C 17.847656 54.476562 17.433594 54.355469 17.242188 54.027344 C 17.054688 53.699219 17.15625 53.28125 17.480469 53.082031 L 18.859375 52.28125 L 17.480469 51.484375 C 17.25 51.363281 17.109375 51.128906 17.105469 50.871094 C 17.101562 50.613281 17.242188 50.375 17.464844 50.25 C 17.691406 50.121094 17.964844 50.128906 18.183594 50.265625 L 19.5625 51.0625 L 19.566406 49.46875 C 19.566406 49.078125 19.878906 48.765625 20.269531 48.765625 Z M 24.019531 40.789062 C 24.410156 40.789062 24.726562 41.105469 24.726562 41.492188 L 24.726562 43.089844 L 26.105469 42.289062 C 26.441406 42.097656 26.875 42.210938 27.066406 42.546875 C 27.261719 42.886719 27.148438 43.316406 26.808594 43.507812 L 25.429688 44.308594 L 26.808594 45.105469 C 27.148438 45.300781 27.261719 45.730469 27.066406 46.066406 C 26.875 46.402344 26.441406 46.519531 26.105469 46.324219 L 24.726562 45.527344 L 24.726562 47.121094 C 24.714844 47.503906 24.402344 47.804688 24.019531 47.804688 C 23.640625 47.804688 23.328125 47.503906 23.316406 47.121094 L 23.316406 45.527344 L 21.933594 46.324219 C 21.71875 46.460938 21.441406 46.46875 21.214844 46.34375 C 20.988281 46.21875 20.851562 45.976562 20.855469 45.71875 C 20.859375 45.460938 21.003906 45.226562 21.230469 45.105469 L 22.613281 44.308594 L 21.230469 43.507812 C 21.003906 43.390625 20.859375 43.152344 20.855469 42.894531 C 20.851562 42.636719 20.988281 42.398438 21.214844 42.269531 C 21.441406 42.144531 21.71875 42.152344 21.933594 42.289062 L 23.316406 43.089844 L 23.316406 41.492188 C 23.316406 41.105469 23.632812 40.789062 24.019531 40.789062 Z M 39.96875 40.789062 C 40.359375 40.789062 40.675781 41.105469 40.675781 41.492188 L 40.675781 43.089844 L 42.054688 42.289062 C 42.390625 42.097656 42.824219 42.210938 43.015625 42.546875 C 43.210938 42.886719 43.097656 43.316406 42.757812 43.507812 L 41.378906 44.308594 L 42.757812 45.105469 C 43.097656 45.300781 43.210938 45.730469 43.015625 46.066406 C 42.824219 46.402344 42.390625 46.519531 42.054688 46.324219 L 40.675781 45.527344 L 40.675781 47.121094 C 40.675781 47.511719 40.359375 47.824219 39.96875 47.824219 C 39.582031 47.824219 39.265625 47.511719 39.265625 47.121094 L 39.265625 45.527344 L 37.882812 46.324219 C 37.550781 46.5 37.132812 46.382812 36.945312 46.054688 C 36.753906 45.726562 36.859375 45.308594 37.179688 45.105469 L 38.5625 44.308594 L 37.179688 43.507812 C 36.953125 43.386719 36.808594 43.152344 36.808594 42.894531 C 36.804688 42.636719 36.941406 42.398438 37.167969 42.273438 C 37.390625 42.148438 37.667969 42.15625 37.882812 42.289062 L 39.265625 43.089844 L 39.265625 41.492188 C 39.265625 41.105469 39.582031 40.789062 39.96875 40.789062 Z M 39.96875 40.789062 "/>
<path style=" stroke:none;fill-rule:nonzero;fill:rgb(87.45098%,94.509804%,98.431373%);fill-opacity:1;" d="M 35.1875 48.765625 C 36.59375 48.765625 37.296875 49.46875 37.296875 50.875 C 37.296875 52.28125 36.59375 52.984375 35.1875 52.984375 C 33.78125 52.984375 33.078125 52.28125 33.078125 50.875 C 33.078125 49.46875 33.78125 48.765625 35.1875 48.765625 Z M 35.1875 48.765625 "/>
</g>
</svg>
